<?xml version="1.0" encoding="UTF-8"?>
<svg version="1.1" xmlns="http://www.w3.org/2000/svg" width="512" height="512">
<path d="M0 0 C6.44210148 3.69170656 10.77095221 10.93061342 14.73046875 17.00390625 C15.10561111 17.57776566 15.48075348 18.15162506 15.86726379 18.74287415 C17.08841846 20.61216577 18.30594429 22.48379076 19.5234375 24.35546875 C20.3798161 25.66787438 21.23642696 26.98012847 22.09326172 28.29223633 C24.23917902 31.57959096 26.38223307 34.8688004 28.52435303 38.15863037 C30.24775744 40.80468245 31.9734588 43.44923379 33.69921875 46.09375 C36.11586087 49.79734613 38.53103765 53.5018916 40.9453125 57.20703125 C43.28546808 60.79701433 45.62852137 64.38507694 47.97541809 67.97065735 C48.72568246 69.11706146 49.47559145 70.26369822 50.22514343 71.41056824 C52.07113235 74.23415666 53.92363726 77.05287179 55.78637695 79.86547852 C58.79240601 84.41839688 61.75605482 88.93936815 64.36328125 93.734375 C66.22242625 97.11172715 67.97851693 100.21358521 70.7109375 102.98046875 C74.89146563 104.0779281 78.47586098 103.5360745 82.7109375 102.98046875 C95.29547496 103.90373625 103.75481402 113.54022222 112.11376953 121.9921875 C113.82917276 123.72364072 115.55998811 125.43850393 117.29296875 127.15234375 C126.67291849 136.51019921 133.57732028 146.13239126 139.5859375 157.98046875 C140.09479492 158.97506104 140.60365234 159.96965332 141.12792969 160.99438477 C142.16137228 163.01710435 143.19200802 165.04126063 144.21972656 167.06689453 C145.61431563 169.79168595 147.04207255 172.49555141 148.484375 175.1953125 C149.31031332 176.76931225 150.13585851 178.34351838 150.9609375 179.91796875 C151.34362793 180.61986328 151.72631836 181.32175781 152.12060547 182.04492188 C154.63511019 186.9256732 155.25697569 190.48485858 154.7109375 195.98046875 C152.6484375 198.54296875 152.6484375 198.54296875 149.7109375 199.98046875 C143.77780659 199.87817339 143.77780659 199.87817339 141.11761475 197.63978577 C138.73416672 194.82826956 137.31432154 191.46450361 135.7265625 188.1640625 C134.94801162 186.57872941 134.16936253 184.99344454 133.390625 183.40820312 C132.17926547 180.92374474 130.97064727 178.43799267 129.76464844 175.95092773 C123.19831339 162.44130136 116.16391292 150.88935777 105.7109375 139.98046875 C105.06705078 139.3040332 104.42316406 138.62759766 103.75976562 137.93066406 C101.5490322 135.62089779 99.32024565 133.32992522 97.0859375 131.04296875 C96.36937988 130.296521 95.65282227 129.55007324 94.91455078 128.78100586 C90.30722036 124.12427703 86.27552422 120.42168539 79.48828125 119.765625 C78.88113281 119.85714844 78.27398437 119.94867188 77.6484375 120.04296875 C77.03871094 120.11644531 76.42898438 120.18992187 75.80078125 120.265625 C69.85317775 122.30003891 65.51977051 126.89698861 61.21875 131.27734375 C60.62794647 131.87097717 60.03714294 132.4646106 59.42843628 133.07623291 C57.55948368 134.95629862 55.69764209 136.84322835 53.8359375 138.73046875 C52.56296507 140.01348243 51.28953205 141.2960393 50.015625 142.578125 C46.90871083 145.70698175 43.80815075 148.84201009 40.7109375 151.98046875 C44.80640471 155.12032694 47.10312636 156.10145768 52.34765625 156.40625 C58.99304586 155.20898146 63.57392306 150.50388506 68.0234375 145.79296875 C74.45044509 139.09718101 74.45044509 139.09718101 79.0859375 138.66796875 C82.7109375 138.98046875 82.7109375 138.98046875 84.76000977 140.6328125 C86.94555591 143.2627977 88.18665301 145.72127115 89.55078125 148.85546875 C90.3097168 150.58216797 90.3097168 150.58216797 91.08398438 152.34375 C91.60025391 153.54386719 92.11652344 154.74398437 92.6484375 155.98046875 C93.16083984 157.14964844 93.67324219 158.31882812 94.20117188 159.5234375 C95.72056087 163.00239425 97.21817851 166.49001419 98.7109375 169.98046875 C99.19699463 171.10001953 99.68305176 172.21957031 100.18383789 173.37304688 C100.63621826 174.42943359 101.08859863 175.48582031 101.5546875 176.57421875 C102.15893555 177.97704102 102.15893555 177.97704102 102.77539062 179.40820312 C104.18788275 183.29181927 104.36809262 185.89150357 103.7109375 189.98046875 C102.1484375 192.48046875 102.1484375 192.48046875 99.7109375 193.98046875 C96.2109375 194.48046875 96.2109375 194.48046875 92.7109375 193.98046875 C89.10689512 191.07331191 87.51967474 187.88755891 85.6953125 183.68359375 C85.16679687 182.47832031 84.63828125 181.27304687 84.09375 180.03125 C83.54927452 178.76441085 83.00500626 177.49748262 82.4609375 176.23046875 C81.9019035 174.94754078 81.34201613 173.6649843 80.78125 172.3828125 C79.41604209 169.25224952 78.05965182 166.11816442 76.7109375 162.98046875 C74.04094501 162.98046875 73.6462286 163.88057241 71.7734375 165.73046875 C66.21690545 170.64631052 59.13928869 173.32909173 51.7109375 172.98046875 C51.75734375 173.53734375 51.80375 174.09421875 51.8515625 174.66796875 C52.13703244 180.70361887 51.2654042 185.02923214 47.7109375 189.98046875 C43.91340016 194.12741631 40.24970934 196.62954879 34.7109375 197.98046875 C34.75734375 198.75390625 34.80375 199.52734375 34.8515625 200.32421875 C35.08925947 207.18347421 34.82295089 212.33137687 30.7109375 217.98046875 C29.06310144 219.66575563 27.40091073 221.33743922 25.7109375 222.98046875 C25.7109375 223.97046875 25.7109375 224.96046875 25.7109375 225.98046875 C27.83616362 227.66099615 29.90535947 229.11160307 32.18359375 230.55859375 C32.85705338 230.99633118 33.530513 231.4340686 34.22438049 231.8850708 C42.41733916 237.16251049 50.83910675 242.05738317 59.25952148 246.95947266 C80.13846322 259.1358294 80.13846322 259.1358294 81.8359375 264.60546875 C81.65097277 269.59951637 81.65097277 269.59951637 79.7109375 271.98046875 C75.73312618 274.30085869 73.10232099 274.01715608 68.7109375 272.98046875 C65.74511719 271.48095703 65.74511719 271.48095703 62.6328125 269.55078125 C62.06830383 269.20457733 61.50379517 268.85837341 60.92218018 268.50167847 C59.09592658 267.37876619 57.27843899 266.24248164 55.4609375 265.10546875 C54.19844914 264.32465922 52.93542434 263.54471642 51.671875 262.765625 C49.16600953 261.21933443 46.66313025 259.66836998 44.16210938 258.11425781 C41.22031868 256.29002453 38.26083476 254.49774934 35.2890625 252.72265625 C23.78012056 245.84391235 13.16019592 238.48808242 3.28198242 229.34887695 C0.89371431 227.14884002 -1.52279061 224.98587073 -3.94921875 222.828125 C-9.31410958 218.00250402 -14.48423021 213.00416898 -19.6015625 207.91796875 C-20.46845703 207.07169922 -21.33535156 206.22542969 -22.22851562 205.35351562 C-29.44015201 198.1860885 -35.37837743 191.78212172 -35.5390625 181.23046875 C-35.44432354 173.35766113 -33.06095016 168.25742907 -27.83984375 162.4921875 C-24.82184641 159.55021024 -22.52580594 157.98046875 -18.2890625 157.98046875 C-18.33546875 157.20703125 -18.381875 156.43359375 -18.4296875 155.63671875 C-18.67512739 148.55402485 -18.02184531 143.97471852 -14.2890625 137.98046875 C-13.61119964 136.65279252 -12.94158329 135.32078172 -12.2890625 133.98046875 C-12.99708008 133.72426758 -13.70509766 133.46806641 -14.43457031 133.20410156 C-17.53503756 131.87502683 -20.14491301 130.25960323 -22.9609375 128.40234375 C-23.50845169 128.04296722 -24.05596588 127.6835907 -24.62007141 127.31332397 C-26.42953683 126.12372075 -28.23447243 124.92745264 -30.0390625 123.73046875 C-31.30902504 122.89155482 -32.57912875 122.05285455 -33.84936523 121.21435547 C-36.56070592 119.42325678 -39.26984736 117.62888125 -41.97802734 115.83300781 C-45.68071745 113.37967216 -49.39347004 110.94198776 -53.1088562 108.50793457 C-56.12637671 106.52909832 -59.13906819 104.54299584 -62.15075684 102.55529785 C-63.61115451 101.59322879 -65.07330121 100.63380918 -66.53723145 99.67712402 C-68.59645008 98.33024555 -70.64850387 96.97306064 -72.69921875 95.61328125 C-73.30840652 95.21813324 -73.9175943 94.82298523 -74.54524231 94.41586304 C-80.28746617 90.57881926 -84.55300559 85.7758915 -86.2890625 78.98046875 C-87.38374735 70.55615494 -86.15872598 63.9886617 -81.2890625 56.98046875 C-76.97416777 51.79261844 -70.77513116 49.60783084 -64.25 48.6953125 C-55.53469594 48.29600574 -48.26787025 52.22668777 -41.3515625 57.10546875 C-39.79796192 58.17085757 -38.2431977 59.23455077 -36.6875 60.296875 C-35.41664551 61.16916748 -35.41664551 61.16916748 -34.12011719 62.05908203 C-29.1956375 65.40123925 -24.2095795 68.64957868 -19.22531128 71.90155029 C-17.50268108 73.025921 -15.78159999 74.15262965 -14.06079102 75.27978516 C-12.99530029 75.9763623 -11.92980957 76.67293945 -10.83203125 77.390625 C-9.88352295 78.01074463 -8.93501465 78.63086426 -7.95776367 79.26977539 C-5.42920247 80.89063609 -2.87305639 82.44987493 -0.2890625 83.98046875 C-0.94370483 82.97971313 -0.94370483 82.97971313 -1.61157227 81.95874023 C-2.22830811 81.01587158 -2.84504395 80.07300293 -3.48046875 79.1015625 C-4.17124512 78.04565918 -4.86202148 76.98975586 -5.57373047 75.90185547 C-7.1040974 73.56194361 -8.63292213 71.22103378 -10.16064453 68.87939453 C-13.9697226 63.04304774 -17.79070237 57.21580099 -21.65234375 51.4140625 C-22.329021 50.3919165 -23.00569824 49.36977051 -23.70288086 48.31665039 C-24.97991949 46.38845401 -26.26299158 44.46423566 -27.55297852 42.54467773 C-32.95437532 34.36126554 -36.6216886 27.00545149 -35.2890625 16.98046875 C-33.50747332 9.79048385 -30.53506068 4.99859497 -24.2890625 0.98046875 C-16.78161099 -3.35075328 -7.92034402 -3.44292505 0 0 Z M-19.2890625 18.98046875 C-19.10183438 25.03417795 -17.86715983 28.36305592 -14.2890625 33.35546875 C-13.36894361 34.6716766 -12.45115638 35.98951618 -11.53515625 37.30859375 C-10.76341064 38.40977539 -10.76341064 38.40977539 -9.97607422 39.53320312 C-6.67172822 44.32665672 -3.52559404 49.22521242 -0.3515625 54.10546875 C1.11543053 56.35316352 2.58283028 58.60058752 4.05078125 60.84765625 C4.42625092 61.42270905 4.80172058 61.99776184 5.18856812 62.59024048 C8.02562302 66.93456281 10.86898763 71.27472027 13.71484375 75.61328125 C14.1326561 76.25037018 14.55046844 76.88745911 14.98094177 77.54385376 C17.43136156 81.28017827 17.43136156 81.28017827 19.88302612 85.01568604 C20.4493425 85.87828033 20.4493425 85.87828033 21.02709961 86.75830078 C21.40039902 87.3268277 21.77369843 87.89535461 22.15830994 88.48110962 C23.26310855 90.16782437 24.36204805 91.85825963 25.4609375 93.54882812 C27.03589397 95.96676329 28.64559545 98.35761541 30.2734375 100.74023438 C31.10684727 101.98171952 31.94018274 103.22325455 32.7734375 104.46484375 C33.16797119 105.02923157 33.56250488 105.59361938 33.96899414 106.17510986 C36.45835651 109.92267953 37.21456127 112.50682345 36.7109375 116.98046875 C35.7109375 119.35546875 35.7109375 119.35546875 33.7109375 120.98046875 C27.5429778 121.54119236 24.63847935 120.89781914 19.5234375 117.16796875 C18.21158203 116.24072936 16.89757779 115.31652634 15.58203125 114.39453125 C14.82905762 113.86118164 14.07608398 113.32783203 13.30029297 112.77832031 C8.58141002 109.50188678 3.75427752 106.38791528 -1.05874634 103.2522583 C-4.20349923 101.20251773 -7.34366069 99.14576472 -10.484375 97.08984375 C-11.44253868 96.46301193 -11.44253868 96.46301193 -12.4200592 95.82351685 C-16.34952917 93.25237648 -20.27568948 90.67626877 -24.19906616 88.09584045 C-26.77654498 86.40062356 -29.35490807 84.70675398 -31.93328857 83.01290894 C-33.14632515 82.21548849 -34.35894882 81.41743949 -35.57110596 80.61868286 C-38.37090189 78.77395567 -41.17600841 76.93938444 -43.9921875 75.11962891 C-46.2714176 73.64076234 -48.52629353 72.14404866 -50.7734375 70.61865234 C-51.91357459 69.86742304 -53.05418359 69.11690936 -54.1953125 68.3671875 C-55.19884766 67.69260498 -56.20238281 67.01802246 -57.23632812 66.32299805 C-61.06613858 64.6387268 -63.27816319 64.9689799 -67.2890625 65.98046875 C-69.83985208 68.20212419 -70.22238921 69.58876318 -70.7890625 72.91796875 C-69.96297177 77.97777446 -66.26643395 80.27627858 -62.24414062 83.17431641 C-61.10689452 83.92056588 -59.96537576 84.66033297 -58.8203125 85.39453125 C-57.88316154 86.00605293 -57.88316154 86.00605293 -56.92707825 86.62992859 C-54.88472726 87.96082602 -52.8369837 89.283162 -50.7890625 90.60546875 C-49.35923166 91.5348045 -47.92979351 92.46474468 -46.50073242 93.39526367 C-43.5573027 95.31113069 -40.61200347 97.22407588 -37.66552734 99.13525391 C-33.49483267 101.84320225 -29.33709025 104.57045394 -25.18359375 107.3046875 C-23.8932304 108.15348494 -22.60286583 109.00228055 -21.3125 109.85107422 C-19.48737855 111.05180266 -17.66245931 112.25282973 -15.83837891 113.45513916 C-9.68504666 117.50873645 -3.50599564 121.51988156 2.7421875 125.42578125 C4.2880957 126.39475342 4.2880957 126.39475342 5.86523438 127.38330078 C8.42710939 128.82116852 10.70381357 129.7667855 13.5234375 130.54296875 C17.95904795 131.78461293 20.69160247 134.20888277 23.984375 137.359375 C25.82059801 139.17284408 25.82059801 139.17284408 28.7109375 140.98046875 C37.9509375 131.74046875 47.1909375 122.50046875 56.7109375 112.98046875 C55.04218124 108.80857809 53.40503055 105.76085127 50.95703125 102.0625 C50.58452744 101.49684326 50.21202362 100.93118652 49.82823181 100.34838867 C48.60571127 98.49385367 47.37704745 96.64347391 46.1484375 94.79296875 C45.28743794 93.48884562 44.42693046 92.18439749 43.56689453 90.87963867 C41.80434078 88.20634604 40.03983182 85.5343605 38.27392578 82.86328125 C34.52371153 77.18682618 30.80534853 71.48964408 27.0859375 65.79296875 C25.70057772 63.67444197 24.31516094 61.55595246 22.9296875 59.4375 C20.37556502 55.53024369 17.8243602 51.62111337 15.27670288 47.7096405 C13.74825781 45.36334959 12.21857074 43.01786966 10.68878174 40.67245483 C9.62643359 39.04259795 8.5658668 37.41158039 7.50537109 35.78051758 C4.36529327 30.9671443 1.20215805 26.16923927 -2.03125 21.41796875 C-2.56347168 20.63292969 -3.09569336 19.84789062 -3.64404297 19.0390625 C-5.97646724 16.12024364 -8.03020418 14.2386961 -11.7265625 13.48046875 C-15.62677448 14.24148572 -17.01524 15.7703664 -19.2890625 18.98046875 Z M0.3359375 146.04296875 C-2.43195041 148.71350168 -2.43195041 148.71350168 -3.1015625 151.79296875 C-1.01574617 159.97578666 8.44913728 167.02418417 14.2109375 172.91796875 C15.02691406 173.77970703 15.84289062 174.64144531 16.68359375 175.52929688 C21.40192167 180.60126259 21.40192167 180.60126259 27.62109375 183.171875 C30.87559749 183.2342269 30.87559749 183.2342269 33.6484375 180.98046875 C36.24902892 177.19779032 36.28596915 175.50623596 35.7109375 170.98046875 C33.94151691 168.53615728 32.37385027 166.7044663 30.234375 164.64453125 C29.67150787 164.07971039 29.10864075 163.51488953 28.52871704 162.93295288 C27.33824273 161.74646731 26.13914715 160.56857703 24.93212891 159.39892578 C23.09153248 157.61090392 21.28506622 155.79302147 19.48046875 153.96875 C18.31699781 152.8170942 17.15169129 151.66728924 15.984375 150.51953125 C15.44662445 149.97793365 14.9088739 149.43633606 14.35482788 148.87832642 C9.66214108 144.38609403 6.11640552 142.51046052 0.3359375 146.04296875 Z M-17.1640625 175.10546875 C-19.47111337 177.80786658 -19.47111337 177.80786658 -19.9140625 180.98046875 C-19.08459907 184.96189323 -17.21520237 186.19453868 -14.2890625 188.98046875 C-12.60094603 190.7443191 -10.91618457 192.51138507 -9.234375 194.28125 C-7.79131214 195.77587428 -6.34490951 197.26717751 -4.89697266 198.75708008 C-3.90560146 199.78386905 -2.92057386 200.81681963 -1.94189453 201.85571289 C-0.51415793 203.36859851 0.9352578 204.85748605 2.390625 206.34375 C3.67042236 207.67853394 3.67042236 207.67853394 4.97607422 209.0402832 C8.46126911 211.51277417 10.52369998 211.46915429 14.7109375 210.98046875 C17.29427083 209.56380208 17.29427083 209.56380208 18.7109375 206.98046875 C19.62978158 203.65338618 19.62978158 203.65338618 18.7109375 199.98046875 C14.13997124 193.5630288 7.9662996 188.08360414 2.3984375 182.54296875 C1.58826172 181.72892578 0.77808594 180.91488281 -0.05664062 180.07617188 C-0.83072266 179.30337891 -1.60480469 178.53058594 -2.40234375 177.734375 C-3.10141846 177.03642822 -3.80049316 176.33848145 -4.52075195 175.61938477 C-6.81449551 173.49348383 -7.97427999 173.02243975 -11.1015625 172.60546875 C-14.45066426 172.73214036 -14.45066426 172.73214036 -17.1640625 175.10546875 Z " fill="#000000" transform="translate(357.2890625,210.01953125)"/>
<path d="M0 0 C2.5345254 2.52006993 4.80862864 5.17860937 7 8 C7.66 7.401875 8.32 6.80375 9 6.1875 C14.69657443 2.03374781 20.3430631 0.33963916 27.4140625 0.58984375 C34.8501875 1.76928956 40.40271783 5.67299929 45.0390625 11.44921875 C46 13 46 13 46 15 C46.60585937 14.77183594 47.21171875 14.54367187 47.8359375 14.30859375 C55.73222361 11.59956021 62.49439211 11.21902011 70.25 14.625 C76.15561166 17.96554801 79.71062324 22.42276804 81.9375 28.8125 C83.71165789 35.65866222 83.18606756 42.62786488 80 49 C80.70125 49.185625 81.4025 49.37125 82.125 49.5625 C87.3157593 52.15787965 90.62601127 56.57078129 92.875 61.875 C95.11010321 68.8346028 94.59374209 75.27390421 91.78796387 81.98358154 C87.56358451 89.11040111 81.05441857 94.66210159 75.171875 100.4140625 C73.69654521 101.87818716 72.22254537 103.34365305 70.74981689 104.81039429 C66.88977443 108.64764295 63.01205231 112.46652133 59.13024902 116.28173828 C55.16444545 120.1859162 51.21579393 124.1073589 47.265625 128.02734375 C39.52702099 135.70180184 31.76961202 143.35694478 24 151 C24.58378418 150.90388428 25.16756836 150.80776855 25.76904297 150.70874023 C28.46908993 150.2718817 31.17183805 149.85463213 33.875 149.4375 C34.7928125 149.28603516 35.710625 149.13457031 36.65625 148.97851562 C45.45390098 147.64647692 53.63360997 147.19125313 61.1796875 152.4765625 C66.6258994 157.034551 70.53841886 161.80819918 71.3359375 169.05078125 C71.4343971 177.27215763 70.81947434 182.73219008 65.26953125 188.93359375 C58.21010822 195.71120349 49.56184495 197.29322617 40.15673828 198.90112305 C39.21724335 199.06737183 38.27774841 199.23362061 37.30978394 199.40490723 C34.23115744 199.94761644 31.15087462 200.48011525 28.0703125 201.01171875 C25.91228392 201.3882348 23.7543157 201.76509699 21.59640503 202.14228821 C17.0834605 202.92937397 12.56964314 203.71120006 8.05517578 204.48950195 C2.2914503 205.48376645 -3.46959142 206.49271862 -9.23002434 207.50586224 C-13.68319624 208.28710439 -18.13784471 209.05964853 -22.59296036 209.82972145 C-24.71676255 210.19804417 -26.84007352 210.5692118 -28.96285629 210.9433651 C-31.93975203 211.46688471 -34.91848393 211.97839696 -37.89794922 212.48706055 C-38.76063416 212.64130997 -39.62331909 212.79555939 -40.512146 212.95448303 C-46.60534431 213.97680783 -52.8308755 214.67712316 -59 214 C-61.75 211.9375 -61.75 211.9375 -63 209 C-62.94042653 205.5447389 -62.8862505 203.11123381 -60.68743229 200.35422421 C-58.75684238 198.8048574 -57.48383801 198.41065741 -55.06358337 197.95741272 C-54.27849427 197.80500091 -53.49340517 197.65258909 -52.68452549 197.49555874 C-51.41163874 197.26778036 -51.41163874 197.26778036 -50.11303711 197.03540039 C-49.22368186 196.86735177 -48.33432661 196.69930315 -47.4180212 196.52616215 C-44.614555 196.00214985 -41.80824636 195.49771556 -39 195 C-38.14345448 194.84757214 -37.28690895 194.69514427 -36.4044075 194.53809738 C-31.24960211 193.62778223 -26.08929316 192.75265249 -20.92617989 191.89083672 C-18.10391091 191.41896489 -15.28256233 190.94189779 -12.46141052 190.46339417 C-4.45856549 189.10623725 3.54488663 187.75288835 11.55102539 186.4152832 C16.49040953 185.58966994 21.42799238 184.7539515 26.36454964 183.91160774 C28.2325888 183.59485184 30.10127563 183.28189038 31.97060966 182.97286797 C34.56993747 182.5428158 37.16677427 182.09992753 39.76342773 181.65405273 C40.52754471 181.53086166 41.29166168 181.40767059 42.07893372 181.28074646 C46.29229404 180.54159609 49.54779588 179.56527431 53 177 C54.39935013 174.20129973 54.25265405 172.09501208 54 169 C52.44352033 166.62432051 51.4150252 166.1095309 48.6734314 165.38598633 C45.97032826 164.99571604 44.07950366 165.12448908 41.41259766 165.63671875 C40.53463531 165.80018799 39.65667297 165.96365723 38.75210571 166.13208008 C37.81555145 166.31536865 36.87899719 166.49865723 35.9140625 166.6875 C33.91146609 167.05993756 31.90886168 167.43233205 29.90625 167.8046875 C26.76339206 168.40084837 23.6212703 169.00071444 20.47949219 169.60253906 C17.438499 170.18173042 14.39522938 170.74755547 11.3515625 171.3125 C10.4190567 171.49578857 9.4865509 171.67907715 8.52578735 171.86791992 C-2.74693044 173.95184174 -2.74693044 173.95184174 -7.875 170.875 C-9.77977136 167.70038106 -10.122275 165.72938761 -10 162 C-8.73887444 160.16066074 -8.73887444 160.16066074 -6.99411011 158.26478577 C-6.03119364 157.21478488 -6.03119364 157.21478488 -5.04882431 156.14357185 C-1.74496246 152.68692345 1.61864685 149.3006369 5.03076172 145.95092773 C6.62458801 144.37674974 8.21840898 142.80256635 9.81222534 141.2283783 C10.64639858 140.40643415 11.48057182 139.58449001 12.34002304 138.73763847 C16.78545326 134.35335326 21.21547635 129.95352641 25.6484375 125.55664062 C31.2764709 119.97658874 36.90893795 114.40121432 42.55664062 108.84106445 C47.13586402 104.33203282 51.70034865 99.80854147 56.25531387 95.27501106 C57.99070304 93.55321354 59.73149551 91.83684424 61.47774887 90.12606621 C63.91439403 87.73761738 66.33179346 85.33116906 68.74560547 82.91967773 C69.46972122 82.21870468 70.19383698 81.51773163 70.93989563 80.79551697 C74.16140256 77.54060131 75.82320541 75.664296 77.02371216 71.15345764 C77.22170501 68.03701322 77.22170501 68.03701322 75.875 65.625 C73.49279641 63.56042355 72.15490049 63.07511668 69 63 C64.76682822 65.11634834 61.63271687 68.10415634 58.35522461 71.44946289 C57.8147197 71.99288834 57.27421478 72.53631378 56.71733093 73.09620667 C55.55019332 74.27092659 54.385371 75.4479505 53.22263908 76.62703133 C51.38181829 78.49346732 49.53474433 80.35350639 47.68592834 82.21202087 C43.76414985 86.15660955 39.85027386 90.10898181 35.9375 94.0625 C31.39896802 98.64824616 26.85724764 103.23073602 22.30700874 107.8048687 C20.488209 109.63662456 18.67554154 111.47430401 16.86302185 113.31227112 C15.74743851 114.43511977 14.63157327 115.55768844 13.51538086 116.67993164 C13.01397583 117.19166931 12.5125708 117.70340698 11.99597168 118.23065186 C9.52234784 120.70501858 7.33421323 122.82875984 4 124 C0.31939225 123.87085587 -2.0716765 123.77859391 -4.9375 121.375 C-6.472141 117.94462601 -6.45384452 115.74510308 -6 112 C-4.268211 109.28894208 -2.03674805 107.19146998 0.28637695 104.98242188 C0.95455444 104.31964737 1.62273193 103.65687286 2.31115723 102.97401428 C4.52129444 100.78912223 6.75470622 98.62965309 8.98828125 96.46875 C10.52989767 94.95035871 12.06968367 93.43010694 13.60771179 91.90808105 C17.66092476 87.90425886 21.73291884 83.92015195 25.81091309 79.94158936 C32.33119754 73.57768609 38.83081827 67.19299356 45.3148098 60.79212952 C47.58082138 58.56317898 49.85967813 56.34799472 52.13996887 54.13366699 C53.53562194 52.76214213 54.93080392 51.39013766 56.32543945 50.01757812 C56.95985458 49.40854141 57.59426971 48.7995047 58.24790955 48.17201233 C62.07236225 44.37776186 64.3317506 41.15463576 66 36 C65.36907739 32.84538696 64.74370799 31.56419227 62.1875 29.625 C59.38344151 28.82384043 57.79854112 29.21152407 55 30 C52.95769334 31.34825219 52.95769334 31.34825219 51.13319397 33.11795044 C50.4443619 33.75154606 49.75552982 34.38514168 49.04582405 35.03793716 C45.93854377 38.01799752 42.88068469 41.03622866 39.86889648 44.11279297 C38.49694597 45.50438714 37.12499251 46.8959784 35.7530365 48.28756714 C34.68213429 49.37681299 34.68213429 49.37681299 33.5895977 50.48806381 C29.77296262 54.36597782 25.94064625 58.2283671 22.11132812 62.09375 C17.25554464 66.99750764 12.40447996 71.90570398 7.56860352 76.82910156 C3.64313529 80.82479631 -0.29680288 84.80570075 -4.24680901 88.77713394 C-5.74532926 90.28923544 -7.23842278 91.80673529 -8.72589302 93.3297081 C-10.8030115 95.45507389 -12.89808796 97.56105189 -14.99829102 99.66357422 C-15.90948952 100.60948677 -15.90948952 100.60948677 -16.83909607 101.57450867 C-20.68952844 105.37967298 -23.34630559 106.97538972 -29 107 C-31.9375 105.5625 -31.9375 105.5625 -34 103 C-34.67571137 99.62144313 -34.89418876 98.18264945 -34 95 C-29.1457617 87.7485796 -21.74383333 81.65469952 -15.54909134 75.53505707 C-13.62959971 73.63781162 -11.71429139 71.73643401 -9.80014038 69.83380127 C-4.3633743 64.43043973 1.07771646 59.03148928 6.52880859 53.64257812 C9.87599802 50.33298694 13.21587175 47.01616379 16.55113602 43.69455719 C17.82026196 42.43348491 19.09215939 41.17519546 20.36686325 39.91976166 C22.14260266 38.17043737 23.90890647 36.41208401 25.67333984 34.65136719 C26.20109009 34.13597382 26.72884033 33.62058044 27.27258301 33.08956909 C30.77020034 29.61226477 30.77020034 29.61226477 32 25 C30.91970563 21.2189697 30.35693737 20.23795825 27 18 C22.49581078 17.95456479 19.82926927 18.8031868 16.54785156 21.77099609 C15.3132487 23.00648631 14.09511388 24.25857117 12.890625 25.5234375 C12.21809692 26.20472717 11.54556885 26.88601685 10.85266113 27.58795166 C9.3984097 29.06498673 7.95112991 30.54891149 6.51013184 32.03887939 C4.228248 34.39748333 1.92801267 36.73670463 -0.37792969 39.07177734 C-5.26895351 44.031314 -10.13608752 49.01389071 -15 54 C-20.63699511 59.7786142 -26.28337615 65.54735166 -31.95568848 71.2913208 C-34.22101986 73.59552259 -36.4675171 75.91705768 -38.71386719 78.23974609 C-40.10522379 79.65290097 -41.49743143 81.06521861 -42.890625 82.4765625 C-43.50901245 83.12594788 -44.1273999 83.77533325 -44.76452637 84.44439697 C-48.65208551 88.33475024 -51.26114884 89.9115618 -57 90 C-59.64816011 89.21270916 -60.62884529 88.47719891 -62.3125 86.3125 C-63.33221153 82.88256123 -62.80057688 80.47413022 -62 77 C-59.87438965 74.1932373 -59.87438965 74.1932373 -57.03710938 71.45117188 C-56.5216304 70.9444545 -56.00615143 70.43773712 -55.47505188 69.91566467 C-54.35979219 68.82314488 -53.23765693 67.73760835 -52.10945129 66.65846252 C-50.3220017 64.94793766 -48.55428592 63.21905143 -46.79040527 61.48425293 C-42.40768639 57.18155753 -37.99297132 52.91217215 -33.5791626 48.64141846 C-29.84630893 45.02708697 -26.12607107 41.40062533 -22.42158508 37.75721741 C-20.68237053 36.05678803 -18.92604323 34.37548853 -17.16833496 32.69421387 C-16.09897004 31.64665306 -15.03044335 30.59823565 -13.96289062 29.54882812 C-13.02658813 28.64394653 -12.09028564 27.73906494 -11.12561035 26.8067627 C-8.5802257 23.44570892 -8.15119587 21.17711402 -8 17 C-9.3919296 14.06148195 -10.36130001 13.25211842 -13.375 12.0625 C-17.95284417 11.95350371 -20.59165298 14.62955717 -23.88101196 17.61358643 C-24.95387703 18.66860027 -26.02138096 19.72908396 -27.08447266 20.79394531 C-27.67225494 21.37501038 -28.26003723 21.95607544 -28.8656311 22.55474854 C-30.80376841 24.47392415 -32.73430929 26.40052159 -34.6640625 28.328125 C-36.02047582 29.67810277 -37.37703547 31.02793351 -38.73373413 32.37762451 C-41.58013704 35.2120546 -44.42237747 38.0505864 -47.26220703 40.89160156 C-50.86593797 44.49553422 -54.4831441 48.08559087 -58.10422707 51.67207718 C-60.91511475 54.46048247 -63.71661695 57.25818062 -66.51575851 60.0583725 C-67.84311626 61.38340035 -69.173647 62.70525881 -70.50764847 64.02359772 C-81.51724696 74.91610561 -91.20550518 86.48074364 -98.9140625 99.97265625 C-99.29887787 100.62850204 -99.68369324 101.28434784 -100.08016968 101.96006775 C-101.26955107 103.98980087 -102.44800569 106.02556423 -103.625 108.0625 C-108.26361206 116.03834637 -112.91459767 124.00283998 -117.8359375 131.80859375 C-118.19547516 132.38972427 -118.55501282 132.9708548 -118.92544556 133.56959534 C-120.9233988 136.69672627 -122.73756568 139.16259764 -126 141 C-129.39685818 140.88081199 -131.94000615 140.58128695 -134.9375 138.9375 C-136.77214353 135.59197356 -136.72654912 132.63968161 -136 129 C-133.80899954 124.21385639 -131.07119392 119.78451008 -128.3125 115.3125 C-127.52898741 114.0168087 -126.74677307 112.7203315 -125.96582031 111.4230957 C-124.39628844 108.82298517 -122.816246 106.22973775 -121.22705078 103.64160156 C-119.26499981 100.44310802 -117.34350514 97.22214424 -115.43359375 93.9921875 C-114.37365243 92.22320479 -113.31254209 90.45492177 -112.25 88.6875 C-111.80567627 87.93315674 -111.36135254 87.17881348 -110.90356445 86.40161133 C-101.98741098 71.85189175 -89.97310861 59.51228129 -77.94140625 47.54296875 C-76.53902858 46.13856262 -75.13709583 44.73371208 -73.73558044 43.32844543 C-70.8302597 40.4187522 -67.91971094 37.51442714 -65.00512695 34.61401367 C-61.2772587 30.90339504 -57.56324083 27.17924714 -53.85292149 23.45109081 C-50.97498966 20.56231884 -48.08995239 17.68072862 -45.20271111 14.80126381 C-43.82942788 13.42997368 -42.45834712 12.05647404 -41.089571 10.68068504 C-39.18350614 8.76698448 -37.26806126 6.86318857 -35.34985352 4.96166992 C-34.79340149 4.3991452 -34.23694946 3.83662048 -33.66363525 3.25704956 C-24.2924007 -5.96403217 -10.96470937 -7.87949762 0 0 Z " fill="#000000" transform="translate(136,274)"/>
<path d="M0 0 C2.5625 2 2.5625 2 4 5 C3.60885951 10.84952356 2.23097081 15.99712918 0.34765625 21.5234375 C0.08746201 22.30965485 -0.17273224 23.09587219 -0.44081116 23.90591431 C-1.26606218 26.39799782 -2.1007516 28.88675542 -2.9375 31.375 C-8.36621845 47.55223371 -11.30804482 61.02930421 -11.125 78.125 C-11.11494877 79.76561953 -11.10582672 81.40624503 -11.09765625 83.046875 C-11.07581549 87.03139965 -11.0414043 91.01563259 -11 95 C-10.6687915 94.45005371 -10.33758301 93.90010742 -9.99633789 93.33349609 C-9.55539795 92.61242676 -9.11445801 91.89135742 -8.66015625 91.1484375 C-8.22582275 90.43349121 -7.79148926 89.71854492 -7.34399414 88.98193359 C-4.78131287 85.20285157 -1.21182836 82.68473134 3 81 C3.99 81 4.98 81 6 81 C6.57427734 79.21529297 6.57427734 79.21529297 7.16015625 77.39453125 C9.16534923 71.38836083 11.41351017 65.47944657 13.70629883 59.57788086 C14.1965484 58.3104343 14.68218003 57.04119248 15.16333008 55.77026367 C15.86807795 53.90930001 16.58815878 52.05416585 17.30859375 50.19921875 C17.72939209 49.10440186 18.15019043 48.00958496 18.58374023 46.8815918 C20.04525083 43.90793043 21.47735831 42.12449549 24 40 C26.76706664 39.21635808 29.2055681 39.35425193 32 40 C34.5625 42 34.5625 42 36 45 C35.63827744 50.61976284 34.42435344 55.10052635 32.27734375 60.34375 C32.01240616 60.99831177 31.74746857 61.65287354 31.47450256 62.32727051 C30.63778051 64.38863046 29.78793997 66.44426716 28.9375 68.5 C28.36305058 69.90849489 27.78947482 71.31734642 27.21679688 72.7265625 C25.82126013 76.15521752 24.41391597 79.57887657 23 83 C23.76699219 83.27585937 24.53398437 83.55171875 25.32421875 83.8359375 C28.65130966 85.28334347 30.56178392 87.35279397 33 90 C34.05380859 89.51273438 34.05380859 89.51273438 35.12890625 89.015625 C41.68148149 86.69770723 49.67055462 87.18691317 56 90 C56.9590625 88.63875 56.9590625 88.63875 57.9375 87.25 C61.9932379 82.46921398 66.83741934 80.3252011 73.0390625 79.6875 C78.37202494 79.58163474 83.05069914 79.80031073 88 82 C88.9590625 80.63875 88.9590625 80.63875 89.9375 79.25 C93.2870808 75.30161146 97.0048922 73.29337613 102 72 C106.03270592 71.69948586 109.96655206 71.79848442 114 72 C111.73979334 57.53056574 108.2127145 43.4826511 104.53491211 29.31762695 C103.78431732 26.41765561 103.04227151 23.51559146 102.30078125 20.61328125 C102.06958084 19.7351326 101.83838043 18.85698395 101.60017395 17.95222473 C98.8561521 7.19237514 98.8561521 7.19237514 101.5 2.125 C104.53837914 -0.45762227 106.14104274 -0.55886922 110 -0.56640625 C112.86447507 0.24482204 114.0630835 1.76765185 116 4 C116.95436096 6.35179138 116.95436096 6.35179138 117.59985352 8.98608398 C117.85013809 9.97910019 118.10042267 10.97211639 118.35829163 11.995224 C118.61259445 13.06801102 118.86689728 14.14079803 119.12890625 15.24609375 C119.40468002 16.3670192 119.6804538 17.48794464 119.96458435 18.64283752 C120.5469681 21.02430385 121.12231287 23.40750087 121.69116211 25.79223633 C122.54622731 29.36942281 123.4263851 32.93967445 124.31054688 36.50976562 C129.769725 58.82018677 132.51147164 79.65332146 132.39111328 102.64331055 C132.37482186 106.35306437 132.39116574 110.06176041 132.41015625 113.77148438 C132.40817697 116.15625238 132.40433984 118.54101973 132.3984375 120.92578125 C132.40451019 122.02167068 132.41058289 123.11756012 132.4168396 124.24665833 C132.34838581 131.72259214 131.29609703 137.20260876 127.375 143.6875 C121.32462656 149.57865309 114.48183717 152.15294268 106.13671875 152.19921875 C103.86082031 151.98702347 102.18026049 151.33273217 100.0625 150.5 C98.08417954 149.81260406 98.08417954 149.81260406 96 150 C93.44481855 151.78597458 91.36657061 153.82044357 89.15625 156.015625 C84.7997863 160.02483435 79.75712483 160.28559369 74.03515625 160.23046875 C71.83523457 159.98134134 70.07104661 159.32850354 68 158.5625 C66.02606056 157.89942451 66.02606056 157.89942451 64 158 C61.71943633 159.50552836 59.9381494 161.24886739 58 163.171875 C53.54697973 167.24221384 48.06220349 168.54821551 42.078125 168.2890625 C35.86280057 167.42452489 30.55147272 165.41354931 26 161 C25.34 160.01 24.68 159.02 24 158 C22.845 158.33 21.69 158.66 20.5 159 C12.67080548 160.91258003 6.32336776 160.24702102 -1 157 C-6.51823659 153.61380937 -9.97563976 148.07308072 -12 142 C-12.0806622 140.51876453 -12.10761193 139.03417796 -12.09765625 137.55078125 C-12.09443359 136.70322266 -12.09121094 135.85566406 -12.08789062 134.98242188 C-12.07951172 134.10134766 -12.07113281 133.22027344 -12.0625 132.3125 C-12.05798828 131.41982422 -12.05347656 130.52714844 -12.04882812 129.60742188 C-12.03704983 127.40488013 -12.02060164 125.20247401 -12 123 C-12.75152344 122.74089844 -13.50304687 122.48179687 -14.27734375 122.21484375 C-20.02759447 119.64909343 -23.77256459 114.26767129 -26.18359375 108.5625 C-28.99926539 100.4077223 -28.5958327 91.88514319 -28.52148438 83.36010742 C-28.50022212 80.46771614 -28.52125971 77.5778581 -28.546875 74.68554688 C-28.58118129 56.1018804 -24.37069316 39.97501849 -18.30883789 22.51660156 C-17.42050146 19.95090474 -16.55437234 17.37836136 -15.68945312 14.8046875 C-15.12628845 13.16101631 -14.56188418 11.51776919 -13.99609375 9.875 C-13.61160316 8.72837891 -13.61160316 8.72837891 -13.21934509 7.55859375 C-10.79837359 0.67634382 -7.26482584 -1.38586035 0 0 Z M100 93 C99.51273235 95.99938217 99.3194655 98.41624266 99.37109375 101.40625 C99.36868179 102.20857056 99.36626984 103.01089111 99.36378479 103.83752441 C99.36476138 105.52861489 99.37811042 107.21973807 99.40307617 108.91064453 C99.43739791 111.49232073 99.42372532 114.0705734 99.40429688 116.65234375 C99.41119571 118.29949367 99.42086845 119.94663479 99.43359375 121.59375 C99.42615395 122.7455072 99.42615395 122.7455072 99.41856384 123.92053223 C99.49919669 127.60815838 99.87780062 129.80540702 101.85571289 132.95507812 C103.91247712 135.17515298 103.91247712 135.17515298 106.875 136.125 C110.44124277 135.98235029 112.06996225 134.9822843 114.72305298 132.64111328 C117.13643552 129.53947001 116.83505541 126.16463259 116.76171875 122.375 C116.76508743 121.5504834 116.76845612 120.7259668 116.77192688 119.87646484 C116.77162871 118.13828271 116.75644306 116.40004712 116.72729492 114.66210938 C116.68761176 112.00747599 116.70659301 109.35784076 116.73242188 106.703125 C116.72486219 105.01039736 116.71390814 103.31768078 116.69921875 101.625 C116.70620285 100.83528809 116.71318695 100.04557617 116.72038269 99.23193359 C116.61307572 95.02593291 116.33413731 93.42543563 113.64379883 90 C111.13358116 87.80455727 111.13358116 87.80455727 108 87.375 C103.89149442 88.23093866 102.58559725 89.71680415 100 93 Z M6.34008789 97.98217773 C3.22763417 101.9960578 3.28849091 104.72045622 3.37109375 109.66015625 C3.36868179 110.48704453 3.36626984 111.3139328 3.36378479 112.1658783 C3.36476145 113.9082419 3.37811189 115.65063723 3.40307617 117.39282227 C3.43744037 120.05787526 3.42371461 122.71962041 3.40429688 125.38476562 C3.41119431 127.08074326 3.42086577 128.77671235 3.43359375 130.47265625 C3.42863388 131.26752945 3.42367401 132.06240265 3.41856384 132.88136292 C3.49450422 136.45075386 3.6811151 138.5745819 5.85180664 141.47045898 C8.68606665 143.48848819 10.51621403 144 14 144 C16.74716387 142.22960551 18.53145922 140.93708156 20 138 C20.12322945 135.35971563 20.18838268 132.74684217 20.203125 130.10546875 C20.21167511 128.92891472 20.21167511 128.92891472 20.22039795 127.72859192 C20.2298514 126.06671499 20.2363833 124.40481928 20.24023438 122.74291992 C20.24992229 120.20783462 20.28093404 117.67356621 20.3125 115.13867188 C20.31903197 113.52344231 20.32428168 111.90820695 20.328125 110.29296875 C20.3404718 109.53759323 20.3528186 108.78221771 20.36553955 108.00395203 C20.3465665 103.49056215 19.80983305 100.5798436 17 97 C12.940402 94.970201 9.94422503 95.29635952 6.34008789 97.98217773 Z M68 101 C67.51273235 103.99938217 67.3194655 106.41624266 67.37109375 109.40625 C67.36868179 110.20857056 67.36626984 111.01089111 67.36378479 111.83752441 C67.36476138 113.52861489 67.37811042 115.21973807 67.40307617 116.91064453 C67.43739791 119.49232073 67.42372532 122.0705734 67.40429688 124.65234375 C67.41119571 126.29949367 67.42086845 127.94663479 67.43359375 129.59375 C67.42615395 130.7455072 67.42615395 130.7455072 67.41856384 131.92053223 C67.49916235 135.60658782 67.87975207 137.80785697 69.85180664 140.95898438 C72.62345467 143.59234924 74.18631908 144.07783022 78 144 C80.74716387 142.22960551 82.53145922 140.93708156 84 138 C84.2843628 132.77456353 84.31374419 127.54811679 84.35009766 122.31567383 C84.36664961 120.56879344 84.39392995 118.82198057 84.43212891 117.07543945 C84.48698252 114.55384274 84.50878326 112.03383225 84.5234375 109.51171875 C84.54610687 108.73446945 84.56877625 107.95722015 84.59213257 107.15641785 C84.57638846 103.10203057 84.18561096 101.23687329 81.65478516 98.00708008 C79.13561685 95.80512047 79.13561685 95.80512047 76 95.375 C71.89149442 96.23093866 70.58559725 97.71680415 68 101 Z M36 109 C35.51273235 111.99938217 35.3194655 114.41624266 35.37109375 117.40625 C35.36868179 118.20857056 35.36626984 119.01089111 35.36378479 119.83752441 C35.36476138 121.52861489 35.37811042 123.21973807 35.40307617 124.91064453 C35.43739791 127.49232073 35.42372532 130.0705734 35.40429688 132.65234375 C35.41119571 134.29949367 35.42086845 135.94663479 35.43359375 137.59375 C35.42615395 138.7455072 35.42615395 138.7455072 35.41856384 139.92053223 C35.49916235 143.60658782 35.87975207 145.80785697 37.85180664 148.95898438 C40.62345467 151.59234924 42.18631908 152.07783022 46 152 C48.74716387 150.22960551 50.53145922 148.93708156 52 146 C52.2843628 140.77456353 52.31374419 135.54811679 52.35009766 130.31567383 C52.36664961 128.56879344 52.39392995 126.82198057 52.43212891 125.07543945 C52.48698252 122.55384274 52.50878326 120.03383225 52.5234375 117.51171875 C52.54610687 116.73446945 52.56877625 115.95722015 52.59213257 115.15641785 C52.57638846 111.10203057 52.18561096 109.23687329 49.65478516 106.00708008 C47.13561685 103.80512047 47.13561685 103.80512047 44 103.375 C39.89149442 104.23093866 38.58559725 105.71680415 36 109 Z " fill="#000000" transform="translate(188,24)"/>
<path d="M0 0 C3.3515625 1.3984375 3.3515625 1.3984375 6.625 3.375 C7.22054688 3.73368164 7.81609375 4.09236328 8.4296875 4.46191406 C31.09438888 18.35356664 51.38111555 36.46496207 67 58 C67.6175415 58.84304687 67.6175415 58.84304687 68.24755859 59.703125 C90.12099821 89.9187913 105.1114432 129.0688014 105.16796875 166.69921875 C105.17296135 167.89548637 105.17296135 167.89548637 105.17805481 169.11592102 C105.18308019 170.79236278 105.18546451 172.46881439 105.18530273 174.14526367 C105.18747975 176.66407421 105.20565673 179.18243902 105.22460938 181.70117188 C105.3245265 208.32859355 105.3245265 208.32859355 99 215 C97 215.6640625 97 215.6640625 95 215.625 C94.34 215.63789063 93.68 215.65078125 93 215.6640625 C89.8274542 214.61067815 88.77461541 212.77836769 87 210 C86.81933594 206.60058594 86.81933594 206.60058594 87.234375 202.734375 C87.36619043 201.30045303 87.49433283 199.86618952 87.61914062 198.43164062 C87.68689697 197.6976001 87.75465332 196.96355957 87.82446289 196.20727539 C88.10279615 192.70739915 88.16650772 189.21276013 88.203125 185.703125 C88.21409966 184.67204369 88.21409966 184.67204369 88.22529602 183.62013245 C88.24163266 181.49669288 88.24822583 179.37350015 88.25 177.25 C88.25067474 176.51087372 88.25134949 175.77174744 88.25204468 175.01022339 C88.23491082 163.11852622 87.59675182 151.63426605 85 140 C84.83371094 139.23300781 84.66742188 138.46601563 84.49609375 137.67578125 C73.14533989 86.80758803 42.32250695 46.87742305 -1 19 C-1.94875 18.40058594 -2.8975 17.80117187 -3.875 17.18359375 C-4.679375 16.66925781 -5.48375 16.15492187 -6.3125 15.625 C-6.98925781 15.20476562 -7.66601562 14.78453125 -8.36328125 14.3515625 C-10.32410394 12.73236286 -11.11292994 11.37314103 -12 9 C-11.81416141 5.96463635 -11.44051393 3.77737753 -9.9375 1.125 C-6.80841039 -0.69189074 -3.49443177 -0.40402234 0 0 Z " fill="#000000" transform="translate(343,79)"/>
<path d="M0 0 C3.32878632 2.46040728 4.79301948 3.89610387 5.5625 8 C4.47274227 13.81204122 0.19366034 16.80120799 -4.4375 20.0625 C-42.61480818 48.12722837 -66.99271002 91.51726206 -74.87280273 137.93212891 C-76.65604253 150.37456929 -76.41224989 162.96328791 -76.23828125 175.50390625 C-76.22875427 176.2157608 -76.21922729 176.92761536 -76.20941162 177.66104126 C-76.13792061 181.21398176 -75.95670987 184.71519793 -75.57958984 188.24951172 C-75.51225143 188.92819809 -75.44491302 189.60688446 -75.37553406 190.30613708 C-75.18089176 192.15461652 -74.95140854 193.99933338 -74.71948242 195.84350586 C-75 199 -75 199 -77.30200195 201.88110352 C-80 204 -80 204 -83 204.625 C-87.03475721 203.78442558 -88.36949962 202.12745914 -91 199 C-94.19308758 188.88386904 -93.36003465 176.95880649 -93.3125 166.4375 C-93.31067719 165.60028412 -93.30885437 164.76306824 -93.30697632 163.90048218 C-93.25999898 151.07444373 -92.79018538 138.56662795 -90 126 C-89.82307617 125.20190918 -89.64615234 124.40381836 -89.46386719 123.58154297 C-88.17908134 117.99083842 -86.66861845 112.48758034 -85 107 C-84.79036621 106.30519531 -84.58073242 105.61039062 -84.36474609 104.89453125 C-74.90598693 74.31193811 -57.93609876 47.99441931 -36 25 C-34.80117187 23.72189453 -34.80117187 23.72189453 -33.578125 22.41796875 C-10.10688449 -1.93536086 -10.10688449 -1.93536086 0 0 Z " fill="#000000" transform="translate(141,90)"/>
<path d="M0 0 C2.40359391 2.8658235 2.49585587 5.25689225 2.625 8.9375 C1.71043745 11.71254409 1.00752654 12.71117758 -1.52734375 14.2109375 C-4.79379556 15.50285813 -8.06552612 16.7608166 -11.375 17.9375 C-12.05804199 18.18290527 -12.74108398 18.42831055 -13.44482422 18.68115234 C-31.27129985 24.97261435 -50.33978264 29.03658753 -69.29296875 29.140625 C-70.52337639 29.14917511 -70.52337639 29.14917511 -71.77864075 29.15789795 C-73.49881729 29.16727818 -75.21901124 29.17385387 -76.93920898 29.17773438 C-79.56590598 29.18751268 -82.19184294 29.21862983 -84.81835938 29.25 C-86.49739123 29.25652475 -88.17642862 29.26177729 -89.85546875 29.265625 C-91.02591988 29.2841452 -91.02591988 29.2841452 -92.22001648 29.30303955 C-96.79319218 29.28435625 -99.76498225 28.81338394 -103.375 25.9375 C-105.375 22.9375 -105.375 22.9375 -105.1875 19.4375 C-104.09907957 14.74891968 -104.09907957 14.74891968 -101.375 12.9375 C-98.57130876 12.65270151 -95.97937286 12.54369795 -93.17578125 12.56640625 C-91.48599787 12.55239962 -89.79621924 12.53780951 -88.10644531 12.52270508 C-87.22138306 12.51977448 -86.3363208 12.51684387 -85.42443848 12.51382446 C-60.22641982 12.38654755 -36.68700454 9.42906286 -13.046875 0.27734375 C-8.36651785 -1.4304887 -4.63985918 -2.07572648 0 0 Z " fill="#000000" transform="translate(327.375,427.0625)"/>
</svg>
